<?xml version="1.0" encoding="utf-8"?>
<!-- Generator: Adobe Illustrator 22.0.1, SVG Export Plug-In . SVG Version: 6.00 Build 0)  -->
<svg version="1.1" id="Layer_1" xmlns="http://www.w3.org/2000/svg" xmlns:xlink="http://www.w3.org/1999/xlink" x="0px" y="0px"
	 viewBox="0 0 100 100" style="enable-background:new 0 0 100 100;" xml:space="preserve">
<path d="M49.5,9C26.6,9,8,27.6,8,50.5C8,73.4,26.6,92,49.5,92S91,73.4,91,50.5C91,27.6,72.4,9,49.5,9z M49.7,84.9
	c-18.9,0-34.2-15.3-34.2-34.2c0-18.9,15.3-34.2,34.2-34.2c18.9,0,34.2,15.3,34.2,34.2C83.9,69.6,68.6,84.9,49.7,84.9z"/>
<path d="M53.1,53.1c-1-0.4-2.2-18.3-3.4-18.3s-2.3,17.9-3.3,18.3c-3.1,1.3-5.3,4.4-5.3,8c0,4.9,4.1,8.9,9.1,8.6
	c4.5-0.2,8.1-4.1,8.1-8.6C58.3,57.5,56.2,54.4,53.1,53.1z"/>
<path d="M31,41.3L23.5,37c-0.4-0.2-0.9-0.1-1.2,0.3l-1.1,1.9c-0.2,0.4-0.1,0.9,0.3,1.2l7.4,4.3c0.4,0.2,0.9,0.1,1.2-0.3l1.1-1.9
	C31.5,42.1,31.4,41.5,31,41.3z"/>
<path d="M29.7,28.7c-0.3-0.3-0.9-0.3-1.2,0L27,30.2c-0.3,0.3-0.3,0.9,0,1.2l6.1,6.1c0.3,0.3,0.9,0.3,1.2,0l1.5-1.5
	c0.4-0.4,0.4-0.9,0-1.2L29.7,28.7z"/>
<path d="M42.6,30.7l-2.2-8.3c-0.1-0.5-0.6-0.7-1.1-0.6l-2.1,0.6c-0.5,0.1-0.7,0.6-0.6,1.1l2.2,8.3c0.1,0.5,0.6,0.7,1.1,0.6l2.1-0.6
	C42.4,31.6,42.7,31.2,42.6,30.7z"/>
<path d="M68.3,41.7l1.1,1.8c0.2,0.4,0.8,0.5,1.2,0.3l7.5-4.3c0.4-0.3,0.6-0.8,0.3-1.2l-1.1-1.8c-0.2-0.4-0.8-0.5-1.2-0.3l-7.5,4.3
	C68.2,40.7,68,41.3,68.3,41.7z"/>
<path d="M72.6,29.4l-1.5-1.5c-0.3-0.3-0.9-0.3-1.2,0l-6.1,6c-0.3,0.3-0.3,0.9,0,1.2l1.5,1.5c0.3,0.3,0.9,0.3,1.2,0l6.1-6
	C73,30.3,73,29.7,72.6,29.4z"/>
<path d="M62.4,21.6L60.3,21c-0.5-0.1-0.9,0.1-1.1,0.6L57,29.8c-0.1,0.5,0.1,0.9,0.6,1l2.1,0.6c0.5,0.1,0.9-0.1,1.1-0.6l2.2-8.2
	C63.2,22.2,62.9,21.7,62.4,21.6z"/>
<path d="M48.8,30.2H51c0.5,0,0.9-0.4,0.9-0.9v-8.6c0-0.6-0.4-0.9-0.9-0.9h-2.2c-0.5,0-0.9,0.4-0.9,0.9v8.6
	C47.9,29.8,48.3,30.2,48.8,30.2z"/>
</svg>
