<?xml version="1.0" encoding="utf-8"?>
<!-- Generator: Adobe Illustrator 22.0.1, SVG Export Plug-In . SVG Version: 6.00 Build 0)  -->
<svg version="1.1" id="Layer_1" xmlns="http://www.w3.org/2000/svg" xmlns:xlink="http://www.w3.org/1999/xlink" x="0px" y="0px"
	 viewBox="0 0 100 100" style="enable-background:new 0 0 100 100;" xml:space="preserve">
<g>
	<path d="M14.9,85.3h70.6c3,0,5.4-2.4,5.4-5.4V17.4c0-3-2.4-5.4-5.4-5.4H14.9c-3,0-5.4,2.4-5.4,5.4v62.5
		C9.5,82.8,11.9,85.3,14.9,85.3z M14.2,17.4c0-0.4,0.3-0.7,0.7-0.7h70.6c0.4,0,0.7,0.3,0.7,0.7v62.5c0,0.4-0.3,0.7-0.7,0.7H14.9
		c-0.4,0-0.7-0.3-0.7-0.7V17.4z"/>
	<path d="M27.4,68.8h45.7c4.1,0,7.4-3.3,7.4-7.4v-33c0-4.1-3.3-7.4-7.4-7.4H27.4c-4.1,0-7.4,3.3-7.4,7.4v33
		C19.9,65.4,23.2,68.8,27.4,68.8z M24.6,28.3c0-1.5,1.2-2.7,2.7-2.7H73c1.5,0,2.7,1.2,2.7,2.7v33c0,1.5-1.2,2.7-2.7,2.7H27.4
		c-1.5,0-2.7-1.2-2.7-2.7v-33H24.6z"/>
	<path d="M30.1,51.7h5.7c0.7,0,1.4-0.3,1.9-0.9l2.1-2.7l4,10.5c0.4,0.9,1.2,1.5,2.2,1.5l0,0c1,0,1.9-0.6,2.2-1.6l7.1-19.7l4.4,11.4
		c0.3,0.9,1.2,1.5,2.2,1.5h8.4c1.3,0,2.4-1.1,2.4-2.4c0-1.3-1.1-2.4-2.4-2.4h-6.8l-6-15.9c-0.3-0.9-1.2-1.5-2.2-1.5l0,0
		c-1,0-1.9,0.6-2.2,1.6L46,50.9l-3.3-8.5c-0.3-0.8-1-1.4-1.9-1.5s-1.7,0.2-2.2,0.9L34.7,47h-4.5c-1.3,0-2.4,1.1-2.4,2.4
		C27.7,50.6,28.8,51.7,30.1,51.7z"/>
	<path d="M22.3,76.9h2.8c1.3,0,2.4-1.1,2.4-2.4s-1.1-2.4-2.4-2.4h-2.8c-1.3,0-2.4,1.1-2.4,2.4C19.9,75.8,21,76.9,22.3,76.9z"/>
</g>
</svg>
