<svg version="1" xmlns="http://www.w3.org/2000/svg" width="413.333" height="413.333" viewBox="0 0 310.000000 310.000000"><path d="M0 155v155h310V0H0v155zm82.7-27.8c4.9 3.2 7.3 8.1 7.3 14.5-.1 9.6-4 15.8-16.6 26.8l-7.5 6.5H92v13H47v-11.5l10.1-8.9c12.2-10.7 17.9-18 18.6-23.6.8-5.5-1.5-8-7.3-8-3.4 0-5.1.7-7.8 3.1l-3.5 3-4.5-3c-2.5-1.7-4.8-3.7-5.2-4.3-1-1.5 6.5-8.1 10.8-9.6 1.8-.6 7.2-1 12-.9 7.4.3 9.2.7 12.5 2.9zm55.4-.4c4.5 2.4 5.9 3.7 8.4 8.7 2.8 5.4 3 6.8 3.3 18.6.5 16.2-1.1 22.4-7.1 28.5-8.8 8.8-24.6 8.8-33.4 0-5.7-5.8-7.7-12.7-7.6-27.1.1-12.8 2.4-20.5 7.7-25.9 4.1-4 8.2-5.4 16.7-5.5 5.5-.1 7.6.4 12 2.7zm112.2-1.7c5.5 1.5 10.3 6.1 11.5 11.2 1.7 6.7-.8 12.8-6.8 16.3l-2.8 1.7 3.9 2.9c7.8 5.6 9.8 13 6 21.5-1.4 2.9-3.3 4.9-6.8 7-4.4 2.6-5.6 2.8-14.8 2.8-8.8 0-10.5-.3-14.4-2.5-6.8-3.9-8.6-6.9-8.6-14.9 0-5.9.4-7.2 2.9-10.5 1.5-2.1 3.9-4.2 5.2-4.8l2.4-1.1-3.4-2.3c-10-6.8-7.2-22.6 4.9-26.9 4.8-1.7 15.5-1.9 20.8-.4zM202 145.5V166h7v12h-7v10h-13v-10h-31v-12.7l15.1-20.1 15.1-20.2H202v20.5z"/><path d="M122.2 136.5c-4.7 2.1-6.5 6.9-6.6 18.5-.1 11.7.7 16 3.9 19.4 1.8 1.9 3.4 2.6 6.3 2.6 7.4 0 10.6-6 10.6-20.5.1-11.7-2.1-18.1-7-20.1-3.9-1.6-3.1-1.7-7.2.1zM233.6 136.6c-2.6 2.6-2 6.9 1.5 9.8 3.8 3.3 6.3 3.3 10.6 0 3.8-2.9 4.4-7.1 1.5-9.7-2.5-2.2-11.5-2.3-13.6-.1zM236.5 161.8c-5.5 3.4-7.3 7.8-5 12.2 2.6 5.1 14.5 5.5 17.7.6.4-.6.8-2.7.8-4.7 0-3.6-2.1-6.4-6.7-8.8-2.9-1.5-3.3-1.4-6.8.7zM180.2 154.7l-8.4 10.8 8.2.3c4.5.2 8.4.1 8.7-.1.2-.3.2-5.2.1-11.1l-.3-10.7-8.3 10.8z"/></svg>