<?xml version="1.0" encoding="utf-8"?>
<!-- Generator: Adobe Illustrator 22.0.1, SVG Export Plug-In . SVG Version: 6.00 Build 0)  -->
<svg version="1.1" id="Layer_1" xmlns="http://www.w3.org/2000/svg" xmlns:xlink="http://www.w3.org/1999/xlink" x="0px" y="0px"
	 viewBox="0 0 100 100" style="enable-background:new 0 0 100 100;" xml:space="preserve">
<style type="text/css">
	.st0{fill:#010101;}
</style>
<path class="st0" d="M72.6,27.2c-5.9-5.8-13.7-9.1-22-9.1c-8.3,0-16.2,3.3-22,9.1c-5.8,5.9-9.1,13.7-9.1,22s3.3,16.1,9.1,22
	c5.9,5.8,13.7,9.1,22,9.1c8.3,0,16.1-3.3,22-9.2C84.7,59,84.7,39.3,72.6,27.2z M69.2,67.8c-4.9,4.9-11.6,7.7-18.6,7.7
	S36.9,72.7,32,67.8c-4.9-4.9-7.7-11.6-7.7-18.6s2.8-13.7,7.7-18.6c4.9-4.9,11.6-7.7,18.6-7.7s13.6,2.7,18.6,7.7
	C79.5,40.9,79.5,57.6,69.2,67.8z"/>
<path class="st0" d="M59.5,46.9h-3.4v0H43.2v0h-1.7c-1.2,0-2.3,1.1-2.3,2.3s1,2.3,2.3,2.3h18c1.2,0,2.3-1,2.3-2.3
	S60.9,46.9,59.5,46.9z"/>
</svg>
