<?xml version="1.0" encoding="utf-8"?>
<!-- Generator: Adobe Illustrator 22.0.1, SVG Export Plug-In . SVG Version: 6.00 Build 0)  -->
<svg version="1.1" id="Layer_1" xmlns="http://www.w3.org/2000/svg" xmlns:xlink="http://www.w3.org/1999/xlink" x="0px" y="0px"
	 viewBox="0 0 100 100" style="enable-background:new 0 0 100 100;" xml:space="preserve">
<g>
	<path d="M19,49.9c0-17.3,14-31.3,31.3-31.4c17.3,0,31.3,14,31.4,31.3c0,17.4-14,31.4-31.4,31.4C33,81.2,19,67.2,19,49.9z
		 M77.2,49.9c0-14.8-12.1-26.9-26.9-26.9c-14.8,0-26.9,12.1-26.9,26.9c0,14.8,12.1,26.9,26.9,26.9C65.1,76.8,77.2,64.7,77.2,49.9z"
		/>
	<path d="M52.6,47.7c4.2,0,8.2,0,12.2,0c1.4,0,2.4,1,2.3,2.3c0,1.1-0.9,2.1-2.1,2.1c-5,0-9.9,0-14.9,0c-1.1,0-2-0.9-2-2
		c0-5.7,0-11.4,0-17.1c0-1.2,1.1-2.1,2.3-2.1c1.2,0,2.1,1,2.1,2.2c0,4.5,0,8.9,0,13.4C52.6,46.9,52.6,47.2,52.6,47.7z"/>
</g>
</svg>
