<?xml version="1.0" encoding="utf-8"?>
<!-- Generator: Adobe Illustrator 22.0.1, SVG Export Plug-In . SVG Version: 6.00 Build 0)  -->
<svg version="1.1" id="Layer_1" xmlns="http://www.w3.org/2000/svg" xmlns:xlink="http://www.w3.org/1999/xlink" x="0px" y="0px"
	 viewBox="0 0 100 100" style="enable-background:new 0 0 100 100;" xml:space="preserve">
<style type="text/css">
	.st0{fill-rule:evenodd;clip-rule:evenodd;}
</style>
<g id="Ellipse_1">
	<g>
		<path class="st0" d="M51.5,9C28.6,9,10,27.6,10,50.5S28.6,92,51.5,92S93,73.4,93,50.5S74.4,9,51.5,9z M51.7,84.9
			c-18.9,0-34.2-15.3-34.2-34.2c0-18.9,15.3-34.2,34.2-34.2c18.9,0,34.2,15.3,34.2,34.2C85.9,69.6,70.6,84.9,51.7,84.9z"/>
	</g>
</g>
<g id="Ellipse_2">
	<g>
		<path class="st0" d="M55.1,53.1c-1-0.4-2.2-18.3-3.4-18.3c-1.2,0-2.3,17.9-3.3,18.3c-3.1,1.3-5.3,4.4-5.3,8c0,4.9,4.1,8.9,9.1,8.6
			c4.5-0.2,8.1-4.1,8.1-8.6C60.3,57.5,58.2,54.4,55.1,53.1z"/>
	</g>
</g>
<g id="Rounded_Rectangle_1">
	<g>
		<path class="st0" d="M33,41.3L25.5,37c-0.4-0.2-0.9-0.1-1.2,0.3l-1.1,1.9c-0.2,0.4-0.1,0.9,0.3,1.2l7.4,4.3
			c0.4,0.2,0.9,0.1,1.2-0.3l1.1-1.9C33.5,42.1,33.4,41.5,33,41.3z"/>
	</g>
</g>
<g id="Rounded_Rectangle_1_copy">
	<g>
		<path class="st0" d="M37.8,34.8l-6.1-6.1c-0.3-0.3-0.9-0.3-1.2,0L29,30.2c-0.3,0.3-0.3,0.9,0,1.2l6.1,6.1c0.3,0.3,0.9,0.3,1.2,0
			l1.5-1.5C38.2,35.6,38.2,35.1,37.8,34.8z"/>
	</g>
</g>
<g id="Rounded_Rectangle_1_copy_2">
	<g>
		<path class="st0" d="M44.6,30.7l-2.2-8.3c-0.1-0.5-0.6-0.7-1.1-0.6l-2.1,0.6c-0.5,0.1-0.7,0.6-0.6,1.1l2.2,8.3
			c0.1,0.5,0.6,0.7,1.1,0.6l2.1-0.6C44.4,31.6,44.7,31.2,44.6,30.7z"/>
	</g>
</g>
<g id="Rounded_Rectangle_1_2_">
	<g>
		<path class="st0" d="M80.4,38.3l-1.1-1.8c-0.2-0.4-0.8-0.5-1.2-0.3l-7.5,4.3c-0.4,0.2-0.6,0.8-0.3,1.2l1.1,1.8
			c0.2,0.4,0.8,0.5,1.2,0.3l7.5-4.3C80.5,39.2,80.7,38.7,80.4,38.3z"/>
	</g>
</g>
<g id="Rounded_Rectangle_1_copy_2_">
	<g>
		<path class="st0" d="M74.6,29.4l-1.5-1.5c-0.3-0.3-0.9-0.3-1.2,0l-6.1,6c-0.3,0.3-0.3,0.9,0,1.2l1.5,1.5c0.3,0.3,0.9,0.3,1.2,0
			l6.1-6C75,30.3,75,29.7,74.6,29.4z"/>
	</g>
</g>
<g id="Rounded_Rectangle_1_copy_2_2_">
	<g>
		<path class="st0" d="M64.4,21.6l-2.1-0.6c-0.5-0.1-0.9,0.1-1.1,0.6l-2.2,8.2c-0.1,0.5,0.1,0.9,0.6,1l2.1,0.6
			c0.5,0.1,0.9-0.1,1.1-0.6l2.2-8.2C65.2,22.2,64.9,21.7,64.4,21.6z"/>
	</g>
</g>
<g id="Rounded_Rectangle_1_copy_3">
	<g>
		<path class="st0" d="M53,19.8h-2.2c-0.5,0-0.9,0.4-0.9,0.9v8.6c0,0.5,0.4,0.9,0.9,0.9H53c0.5,0,0.9-0.4,0.9-0.9v-8.6
			C53.9,20.1,53.5,19.8,53,19.8z"/>
	</g>
</g>
</svg>
