<?xml version="1.0" encoding="utf-8"?>
<!-- Generator: Adobe Illustrator 22.0.1, SVG Export Plug-In . SVG Version: 6.00 Build 0)  -->
<svg version="1.1" id="Layer_1" xmlns="http://www.w3.org/2000/svg" xmlns:xlink="http://www.w3.org/1999/xlink" x="0px" y="0px"
	 viewBox="0 0 100 100" style="enable-background:new 0 0 100 100;" xml:space="preserve">
<style type="text/css">
	.st0{fill:#010101;}
</style>
<g>
	<g>
		<path class="st0" d="M65.9,32l-1.6,42.7c0,0.3-0.3,0.5-0.5,0.5H36.2c-0.3,0-0.5-0.3-0.5-0.5L34,32c-0.1-1.6-1.4-2.9-3-2.8
			c-1.6,0.1-2.9,1.4-2.8,3L29.7,75c0.1,3.4,3,6.2,6.4,6.2h27.6c3.4,0,6.3-2.7,6.4-6.2l1.6-42.7c0.1-1.6-1.2-3-2.8-3
			S65.9,30.4,65.9,32z"/>
		<path class="st0" d="M47.9,40.5V69c0,1.2,0.9,2.1,2.1,2.1c1.2,0,2.1-0.9,2.1-2.1V40.5c0-1.2-0.9-2.1-2.1-2.1
			C48.8,38.4,47.9,39.4,47.9,40.5z"/>
		<path class="st0" d="M38.2,40.6l0.8,28.5c0,1.2,1,2.1,2.2,2s2.1-1,2-2.2l-0.8-28.5c0-1.2-1-2.1-2.2-2
			C39.1,38.5,38.2,39.4,38.2,40.6z"/>
		<path class="st0" d="M57.5,40.5l-0.8,28.5c0,1.2,0.9,2.1,2,2.2s2.1-0.9,2.2-2l0.8-28.5c0-1.2-0.9-2.1-2-2.2S57.5,39.3,57.5,40.5z"
			/>
		<path class="st0" d="M29,33h41.9c1.6,0,2.9-1.3,2.9-2.9c0-1.6-1.3-2.9-2.9-2.9H29c-1.6,0-2.9,1.3-2.9,2.9C26.1,31.7,27.4,33,29,33
			z"/>
		<path class="st0" d="M44.4,28.7l0.9-3.4c0.1-0.5,0.8-1,1.3-1h6.7c0.5,0,1.2,0.5,1.3,1l0.9,3.4l5.7-1.4l-0.9-3.4
			c-0.8-3.1-3.8-5.5-7-5.5h-6.7c-3.2,0-6.2,2.4-7,5.5l-0.9,3.4L44.4,28.7z"/>
	</g>
</g>
</svg>
