<?xml version="1.0" encoding="utf-8"?>
<!-- Generator: Adobe Illustrator 22.0.1, SVG Export Plug-In . SVG Version: 6.00 Build 0)  -->
<svg version="1.1" id="Layer_1" xmlns="http://www.w3.org/2000/svg" xmlns:xlink="http://www.w3.org/1999/xlink" x="0px" y="0px"
	 viewBox="0 0 100 100" style="enable-background:new 0 0 100 100;" xml:space="preserve">
<style type="text/css">
	.st0{fill:#010101;}
</style>
<path class="st0" d="M41.6,18.1c-13.1,0-23.8,10.6-23.8,23.8c0,0,0,0,0,0.3c-6.5,3.3-11,9.9-11,17.9c0,11,9,20.1,20.1,20.1h0.1h48.3
	h0.9c10.1,0,18.3-8.4,18.3-18.3c0-7.7-4.7-14.3-11.4-17.3c0.3-0.7,0.5-1.8,0.5-2.9c0-7.3-5.7-12.8-12.8-12.8c-2.9,0-5.6,0.7-7.8,2.5
	C59.3,23.5,51.1,18.1,41.6,18.1L41.6,18.1z M43.4,41.9h14.6v12.8h7.3L50.8,72.9L36.1,54.7h7.3V41.9L43.4,41.9z"/>
</svg>
