<?xml version="1.0" encoding="utf-8"?>
<!-- Generator: Adobe Illustrator 22.0.1, SVG Export Plug-In . SVG Version: 6.00 Build 0)  -->
<svg version="1.1" id="Layer_1" xmlns="http://www.w3.org/2000/svg" xmlns:xlink="http://www.w3.org/1999/xlink" x="0px" y="0px"
	 viewBox="0 0 100 100" style="enable-background:new 0 0 100 100;" xml:space="preserve">
<style type="text/css">
	.st0{fill:#010101;}
</style>
<g>
	<path class="st0" d="M23.1,58.2h16.8V41.4H23.1v6.7h-5.6v3.4h5.6V58.2z M26.5,44.7h10.1v10.1H26.5V44.7z M43.3,36.3h16.8V19.5H43.3
		v6.7H17.5v3.4h25.8V36.3z M46.7,22.9h10.1V33H46.7V22.9z M51.7,70H17.5v3.4h34.2v6.7h16.8V63.3H51.7V70z M55.1,66.6h10.1v10.1H55.1
		V66.6z M84.3,22.9V33h-3.4v-3.4H63.5v-3.4h17.4v-3.4H84.3z M80.9,44.7h3.4v10.1h-3.4v-3.4H43.3v-3.4h37.6V44.7z M80.9,66.6h3.4
		v10.1h-3.4v-3.4h-9V70h9V66.6z"/>
</g>
</svg>
