<?xml version="1.0" encoding="utf-8"?>
<!-- Generator: Adobe Illustrator 22.0.1, SVG Export Plug-In . SVG Version: 6.00 Build 0)  -->
<svg version="1.1" id="Layer_1" xmlns="http://www.w3.org/2000/svg" xmlns:xlink="http://www.w3.org/1999/xlink" x="0px" y="0px"
	 viewBox="0 0 100 100" style="enable-background:new 0 0 100 100;" xml:space="preserve">
<style type="text/css">
	.st0{fill:#010101;}
</style>
<g>
	<path class="st0" d="M90.6,63.6c-0.1-0.2-0.2-0.3-0.3-0.4l-8.9-7l-0.6-0.4l-3.9-3.1L72.3,49c-0.8-0.6-1.9-0.4-2.5,0.4
		c-0.2,0.3-0.3,0.7-0.3,1v6.5H49.9c-1,0-1.8,0.8-1.8,1.8v3.9V67v3.5c0,1,0.8,1.8,1.8,1.8h19.6v6.5c0,1,0.8,1.8,1.8,1.8
		c0.3,0,0.7-0.1,1-0.3l8.5-6.7l9.5-7.5C91.1,65.5,91.2,64.4,90.6,63.6z"/>
	<path class="st0" d="M42,48.4c1.1,0.8,2.3,1.1,3.7,1.1s2.6-0.4,3.7-1.1L76.9,30v8.7V47l3.9,3.1l0.6,0.4v-4.3v-8.5V26.3
		c0.1-0.3,0.1-0.6,0-0.9c0,0,0,0,0,0v-0.7c0-3.7-3-6.7-6.7-6.7H16.6c-3.7,0-6.7,3-6.7,6.7v1.1c0,0,0,0,0,0V26v34.4
		c0,3.7,3,6.7,6.7,6.7h27v-4.5h-27c-1.2,0-2.2-1-2.2-2.2V30L42,48.4z M16.6,22.5h58.1c1.2,0,2.1,0.9,2.2,2.1l-30,20
		c-0.8,0.4-1.8,0.4-2.5,0l-30-20C14.5,23.5,15.4,22.5,16.6,22.5z"/>
</g>
</svg>
