<?xml version="1.0" encoding="utf-8"?>
<!-- Generator: Adobe Illustrator 22.0.1, SVG Export Plug-In . SVG Version: 6.00 Build 0)  -->
<svg version="1.1" id="Layer_1" xmlns="http://www.w3.org/2000/svg" xmlns:xlink="http://www.w3.org/1999/xlink" x="0px" y="0px"
	 viewBox="0 0 100 100" style="enable-background:new 0 0 100 100;" xml:space="preserve">
<style type="text/css">
	.st0{fill:#010101;}
</style>
<g>
	<g>
		<path class="st0" d="M74.7,53.2c-0.2-0.1-0.3-0.1-0.5-0.1c-0.4,0-0.7,0.1-1,0.4l-2.8,2.8c-0.3,0.3-0.4,0.6-0.4,1v11.1
			c0,1.9-0.7,3.6-2,4.9c-1.4,1.4-3,2-4.9,2H26.8c-1.9,0-3.6-0.7-4.9-2c-1.4-1.4-2-3-2-4.9V32c0-1.9,0.7-3.6,2-4.9c1.4-1.4,3-2,4.9-2
			H63c0.6,0,1.3,0.1,2,0.3c0.2,0.1,0.3,0.1,0.4,0.1c0.4,0,0.7-0.1,1-0.4l2.1-2.1c0.3-0.3,0.5-0.8,0.4-1.3c-0.1-0.5-0.3-0.8-0.8-1
			c-1.6-0.7-3.3-1.1-5.1-1.1H26.8c-3.5,0-6.4,1.2-8.9,3.7c-2.5,2.5-3.7,5.4-3.7,8.9v36.2c0,3.5,1.2,6.4,3.7,8.9
			c2.5,2.5,5.4,3.7,8.9,3.7H63c3.5,0,6.4-1.2,8.9-3.7c2.5-2.5,3.7-5.4,3.7-8.9V54.4C75.5,53.8,75.3,53.4,74.7,53.2z"/>
		<path class="st0" d="M85.6,28.2l-4.8-4.8c-0.7-0.7-1.5-1-2.5-1c-1,0-1.8,0.3-2.5,1L47.7,51.6L36.2,40.1c-0.7-0.7-1.5-1-2.5-1
			c-1,0-1.8,0.3-2.5,1l-4.8,4.8c-0.7,0.7-1,1.5-1,2.5c0,1,0.3,1.8,1,2.5l18.7,18.7c0.7,0.7,1.5,1,2.5,1s1.8-0.3,2.5-1l35.5-35.5
			c0.7-0.7,1-1.5,1-2.5S86.3,28.9,85.6,28.2z"/>
	</g>
</g>
</svg>
