<?xml version="1.0" encoding="utf-8"?>
<!-- Generator: Adobe Illustrator 22.0.1, SVG Export Plug-In . SVG Version: 6.00 Build 0)  -->
<svg version="1.1" id="Layer_1" xmlns="http://www.w3.org/2000/svg" xmlns:xlink="http://www.w3.org/1999/xlink" x="0px" y="0px"
	 viewBox="0 0 100 100" style="enable-background:new 0 0 100 100;" xml:space="preserve">
<style type="text/css">
	.st0{fill-rule:evenodd;clip-rule:evenodd;fill:#010101;}
</style>
<path class="st0" d="M70.5,56V39.9c0-11.1-9-20.1-20.1-20.1s-20.1,9-20.1,20.1V56l-8.1,16.1h18.3c0.9,4.6,5,8.1,9.9,8.1
	c4.9,0,8.9-3.5,9.9-8.1h18.3L70.5,56z M50.4,76.1c-2.6,0-4.8-1.7-5.7-4H56C55.2,74.4,53,76.1,50.4,76.1z M28.2,68.1l6-12.1V39.9
	c0-8.9,7.2-16.1,16.1-16.1c8.9,0,16.1,7.2,16.1,16.1V56l6,12.1H28.2z"/>
</svg>
