<?xml version="1.0" encoding="utf-8"?>
<!-- Generator: Adobe Illustrator 22.0.1, SVG Export Plug-In . SVG Version: 6.00 Build 0)  -->
<svg version="1.1" id="Layer_1" xmlns="http://www.w3.org/2000/svg" xmlns:xlink="http://www.w3.org/1999/xlink" x="0px" y="0px"
	 viewBox="0 0 100 100" style="enable-background:new 0 0 100 100;" xml:space="preserve">
<g>
	<g>
		<path d="M85,32.3c-1.2-1.2-2.5-1.8-3.8-2.3v-7.3c0-2-1.5-3.5-3.5-3.5s-3.5,1.5-3.5,3.5V30c-1.3,0.5-2.7,1.3-3.8,2.3
			c-4,4-4,10.6,0,14.6c2,2,4.6,3,7.3,3c2.7,0,5.3-1,7.3-3C89,43,89,36.3,85,32.3L85,32.3z M80,42c-1.3,1.3-3.5,1.3-4.8,0
			s-1.3-3.5,0-4.8c0.7-0.7,1.5-1,2.3-1s1.7,0.3,2.3,1C81.4,38.5,81.4,40.6,80,42z"/>
	</g>
	<g>
		<path d="M26.7,19.1c-2,0-3.5,1.5-3.5,3.5v5.1c-1.3,0.5-2.7,1.3-3.8,2.3c-4,4-4,10.6,0,14.6c2,2,4.6,3,7.3,3c2.7,0,5.3-1,7.3-3
			c4-4,4-10.6,0-14.6l0,0c-1.2-1.2-2.5-1.8-3.8-2.3v-5.1C30.2,20.7,28.7,19.1,26.7,19.1z M29.2,40c-1.3,1.3-3.5,1.3-4.8,0
			c-1.3-1.3-1.3-3.5,0-4.8c0.7-0.7,1.5-1,2.3-1c0.8,0,1.8,0.3,2.5,1C30.5,36.5,30.3,38.6,29.2,40z"/>
	</g>
	<g>
		<path d="M52.2,19.1c-2,0-3.5,1.5-3.5,3.5v21c-1.5,0.5-2.8,1.3-3.8,2.3c-2,2-3,4.5-3,7.3c0,2.8,1,5.3,3,7.3s4.6,3,7.3,3
			s5.3-1,7.3-3c4-4,4-10.6,0-14.6l0,0c-1.2-1.2-2.5-1.8-3.8-2.3v-21C55.7,20.7,54.2,19.1,52.2,19.1z M54.7,55.7
			c-1.3,1.3-3.5,1.3-4.8,0c-0.7-0.7-1-1.5-1-2.3c0-0.8,0.3-1.8,1-2.5c0.7-0.7,1.5-1,2.3-1c0.8,0,1.8,0.3,2.3,1l0,0
			C55.8,52.2,55.8,54.4,54.7,55.7z"/>
	</g>
	<g>
		<path d="M77.7,55.7c-2,0-3.5,1.5-3.5,3.5v18.7c0,2,1.5,3.5,3.5,3.5s3.5-1.5,3.5-3.5V59.2C81.2,57.4,79.7,55.7,77.7,55.7z"/>
	</g>
	<g>
		<path d="M48.7,73.3v4.6c0,2,1.5,3.5,3.5,3.5s3.5-1.5,3.5-3.5v-4.6c0-2-1.5-3.5-3.5-3.5S48.7,71.5,48.7,73.3z"/>
	</g>
	<g>
		<path d="M23.2,57v20.7c0,2,1.5,3.5,3.5,3.5c2,0,3.5-1.5,3.5-3.5V57c0-2-1.5-3.5-3.5-3.5S23.2,55.2,23.2,57z"/>
	</g>
</g>
</svg>
