<?xml version="1.0" encoding="utf-8"?>
<!-- Generator: Adobe Illustrator 22.0.1, SVG Export Plug-In . SVG Version: 6.00 Build 0)  -->
<svg version="1.1" id="Layer_1" xmlns="http://www.w3.org/2000/svg" xmlns:xlink="http://www.w3.org/1999/xlink" x="0px" y="0px"
	 viewBox="0 0 100 100" style="enable-background:new 0 0 100 100;" xml:space="preserve">
<style type="text/css">
	.st0{fill:#010101;}
</style>
<path class="st0" d="M74.7,39.2l3.9-3.9c1-1,1-2.6,0-3.5L68.9,22c-1-1-2.6-1-3.5,0L61.5,26L74.7,39.2z"/>
<path class="st0" d="M37.3,58.2V62c0,0.7,0.6,1.3,1.3,1.3h3.8L37.3,58.2z"/>
<path class="st0" d="M69.8,37.2L49.3,57.5c-0.3,0.3-0.9,0.3-1.2,0l0,0c-0.3-0.3-0.3-0.9,0-1.2L68.4,36l-3.8-3.8L44.3,52.3
	c-0.3,0.3-0.9,0.3-1.2,0l0,0c-0.3-0.3-0.3-0.9,0-1.2l20.3-20.3l-3.5-3.5L38,49.3c-0.5,0.5-0.8,1.2-0.7,1.9c0,0.1,0,0.1,0,0.2v5.3
	l6.6,6.6h5.3l0,0c0.7,0.1,1.5-0.1,2.1-0.7l21.9-21.9L69.8,37.2z"/>
<g>
	<path class="st0" d="M67.3,78.9H29.8C25,78.9,21,75,21,70.1V32.7c0-4.8,3.9-8.8,8.8-8.8h17.6c1.4,0,2.5,1.1,2.5,2.5
		c0,1.4-1.1,2.5-2.5,2.5H29.8c-2.1,0-3.8,1.7-3.8,3.8v37.6c0,2.1,1.7,3.8,3.8,3.8h37.6c2.1,0,3.8-1.7,3.8-3.8V52.7
		c0-1.4,1.1-2.5,2.5-2.5s2.5,1.1,2.5,2.5v17.6C76.2,75.1,72.3,78.9,67.3,78.9z"/>
</g>
</svg>
