<?xml version="1.0" encoding="utf-8"?>
<!-- Generator: Adobe Illustrator 22.0.1, SVG Export Plug-In . SVG Version: 6.00 Build 0)  -->
<svg version="1.1" id="Layer_1" xmlns="http://www.w3.org/2000/svg" xmlns:xlink="http://www.w3.org/1999/xlink" x="0px" y="0px"
	 viewBox="0 0 100 100" style="enable-background:new 0 0 100 100;" xml:space="preserve">
<style type="text/css">
	.st0{fill:#010101;}
</style>
<path class="st0" d="M61.8,49.2c0,1.3-1.1,2.3-2.3,2.3h-6.7v6.7c0,1.3-1.1,2.3-2.3,2.3c-1.3,0-2.3-1.1-2.3-2.3v-6.7h-6.7
	c-1.3,0-2.3-1.1-2.3-2.3c0-1.2,1.1-2.3,2.3-2.3h6.7v-6.7c0-1.3,1.1-2.3,2.3-2.3c1.3,0,2.3,1.1,2.3,2.3v6.7h6.7
	C60.9,46.9,61.8,47.9,61.8,49.2z M72.6,27.2c12.1,12.1,12.1,31.8,0,43.9c-5.9,5.9-13.7,9.2-22,9.2s-16.1-3.3-22-9.1
	c-5.8-5.9-9.1-13.7-9.1-22s3.3-16.1,9.1-22c5.8-5.8,13.7-9.1,22-9.1S66.7,21.4,72.6,27.2z M69.2,30.6c-5-5-11.6-7.7-18.6-7.7
	s-13.7,2.8-18.6,7.7s-7.7,11.6-7.7,18.6s2.8,13.7,7.7,18.6s11.6,7.7,18.6,7.7s13.7-2.8,18.6-7.7C79.5,57.6,79.5,40.9,69.2,30.6z"/>
</svg>
