<?xml version="1.0" encoding="utf-8"?>
<!-- Generator: Adobe Illustrator 22.0.1, SVG Export Plug-In . SVG Version: 6.00 Build 0)  -->
<svg version="1.1" id="Layer_1" xmlns="http://www.w3.org/2000/svg" xmlns:xlink="http://www.w3.org/1999/xlink" x="0px" y="0px"
	 viewBox="0 0 100 100" style="enable-background:new 0 0 100 100;" xml:space="preserve">
<path d="M13.9,80.6h5.6v-6.9c0-6.5,5.3-11.7,11.7-11.7H42c6.5,0,11.7,5.3,11.7,11.7v6.9h5.6v-6.9c0-5.8-2.9-11.3-7.8-14.5
	c-2.8-1.9-6.1-2.8-9.5-2.8H31.2c-5.3,0-10.3,2.4-13.6,6.7c-2.4,3.1-3.7,6.8-3.7,10.6L13.9,80.6L13.9,80.6z"/>
<path d="M74,63.5h-9.8c-0.3,0-0.5,0-0.8,0c-1.5,0.1-2.7,1.3-2.7,2.8c0,0.8,0.3,1.5,0.9,2c0.6,0.5,1.3,0.8,2.1,0.7c0.2,0,0.4,0,0.6,0
	H74c5.7,0,10.4,4.6,10.4,10.4v1.2H90v-1.2C90,70.7,82.8,63.5,74,63.5z"/>
<path d="M69.1,59.9c7.3,0,13.3-6,13.3-13.3s-6-13.3-13.3-13.3s-13.3,6-13.3,13.3S61.8,59.9,69.1,59.9z M69.1,38.9
	c4.2,0,7.7,3.5,7.7,7.7s-3.5,7.7-7.7,7.7s-7.7-3.5-7.7-7.7S64.9,38.9,69.1,38.9z"/>
<path d="M36.6,54.2c9.2,0,16.7-7.5,16.7-16.7s-7.5-16.7-16.7-16.7s-16.7,7.5-16.7,16.7C19.9,46.7,27.4,54.2,36.6,54.2z M36.6,26.4
	c6.1,0,11.1,5,11.1,11.1c0,6.1-5,11.1-11.1,11.1c-6.1,0-11.1-5-11.1-11.1C25.4,31.4,30.4,26.4,36.6,26.4z"/>
</svg>
